<svg id="a0abe8dc-3e6b-48ed-b282-1465f1104096" data-name="Layer 1" xmlns="http://www.w3.org/2000/svg" width="886.11482" height="718.43942" viewBox="0 0 886.11482 718.43942"><title>select_option</title><ellipse cx="638.53993" cy="698.41573" rx="94.61675" ry="20.02368" fill="#e6e6e6"/><polygon points="191.188 0 63.729 0 0 110.382 63.729 220.765 191.188 220.765 254.917 110.382 191.188 0" fill="#e6e6e6"/><path d="M227.82511,299.15506h113.152l56.576-97.99246-56.576-97.99246h-113.152l-56.576,97.99246Z" transform="translate(-156.94259 -90.78029)" fill="#fff"/><circle cx="69.51589" cy="81.14999" r="5.22006" fill="#e2e2e2"/><circle cx="69.51589" cy="110.38231" r="5.22006" fill="#e2e2e2"/><circle cx="69.51589" cy="139.61462" r="5.22006" fill="#e2e2e2"/><rect x="91.44012" y="76.97395" width="99.18106" height="8.35209" fill="#e2e2e2"/><rect x="91.44012" y="106.20626" width="99.18106" height="8.35209" fill="#e2e2e2"/><rect x="91.44012" y="135.43858" width="99.18106" height="8.35209" fill="#e2e2e2"/><polygon points="822.386 0 694.927 0 631.198 110.382 694.927 220.765 822.386 220.765 886.115 110.382 822.386 0" fill="#e6e6e6"/><path d="M859.02291,299.15506h113.152l56.576-97.99246-56.576-97.99246h-113.152l-56.576,97.99246Z" transform="translate(-156.94259 -90.78029)" fill="#fff"/><circle cx="700.71369" cy="81.14999" r="5.22006" fill="#e2e2e2"/><circle cx="700.71369" cy="110.38231" r="5.22006" fill="#e2e2e2"/><circle cx="700.71369" cy="139.61462" r="5.22006" fill="#e2e2e2"/><rect x="722.63792" y="76.97395" width="99.18106" height="8.35209" fill="#e2e2e2"/><rect x="722.63792" y="106.20626" width="99.18106" height="8.35209" fill="#e2e2e2"/><rect x="722.63792" y="135.43858" width="99.18106" height="8.35209" fill="#e2e2e2"/><polygon points="503.729 1.072 377.508 1.072 314.398 110.382 377.508 219.693 503.729 219.693 566.84 110.382 503.729 1.072" fill="#e6e6e6"/><path d="M541.53486,298.20342H653.588l56.02657-97.04082L653.588,104.12178H541.53486L485.50829,201.1626Z" transform="translate(-156.94259 -90.78029)" fill="#fff"/><circle cx="383.23891" cy="81.43388" r="5.16936" fill="#7e1324"/><circle cx="383.23891" cy="110.38231" r="5.16936" fill="#7e1324"/><circle cx="383.23891" cy="139.33074" r="5.16936" fill="#7e1324"/><rect x="404.95023" y="77.29839" width="98.21789" height="8.27098" fill="#7e1324"/><rect x="404.95023" y="106.24682" width="98.21789" height="8.27098" fill="#7e1324"/><rect x="404.95023" y="135.19525" width="98.21789" height="8.27098" fill="#7e1324"/><path d="M775.38431,283.09769s10.33754,38.56622,19.12253,41.12946-46.85953,10.56617-46.85953,10.56617l-1.22754-34.56155Z" transform="translate(-156.94259 -90.78029)" fill="#a0616a"/><polygon points="572.998 432.889 583.288 454.94 595.049 443.179 587.698 425.538 572.998 432.889" fill="#a0616a"/><polygon points="700.895 419.658 697.954 440.239 689.134 434.359 689.134 412.308 700.895 419.658" fill="#a0616a"/><polygon points="574.468 641.64 570.058 676.922 593.579 678.392 590.639 641.64 574.468 641.64" fill="#a0616a"/><polygon points="703.835 641.64 708.245 676.922 684.724 678.392 687.664 641.64 703.835 641.64" fill="#a0616a"/><path d="M741.70091,511.90838s-10.29056,27.93151-8.82048,39.69215-11.76064,72.03391-7.3504,77.91423,4.41024,13.23072,1.47008,17.641-4.41024-1.47008-2.94016,5.88032-1.47008,44.10239,0,49.98271-4.41024,7.3504-1.47008,13.23072,7.3504,23.52128,7.3504,23.52128l19.111-1.47008,2.94016-16.17088s8.82048-1.47008,7.3504-10.29056,7.3504-67.62367,7.3504-67.62367l24.99135-82.32447,35.28192,74.97407s1.47008,52.92287,5.88032,58.80319-4.41024,22.0512,0,27.93152,8.82048,16.17088,8.82048,16.17088h22.0512V728.01011s13.23071-7.3504,0-29.4016l-2.94016-126.42686-8.82048-60.27327Z" transform="translate(-156.94259 -90.78029)" fill="#2f2e41"/><path d="M753.46155,763.292s-10.29056-4.41024-14.7008-1.47008-7.3504-1.47008-7.3504-1.47008S725.53,757.41171,724.06,761.822a43.42533,43.42533,0,0,1-4.41024,8.82048s-8.82048,16.17087-2.94016,20.58111,10.29056,7.3504,10.29056,10.29056,27.93152,4.41024,27.93152,0S753.46155,763.292,753.46155,763.292Z" transform="translate(-156.94259 -90.78029)" fill="#2f2e41"/><path d="M838.72618,763.292s10.29056-4.41024,14.7008-1.47008,7.3504-1.47008,7.3504-1.47008,5.88032-2.94016,7.3504,1.47008a43.42556,43.42556,0,0,0,4.41023,8.82048s8.82048,16.17087,2.94016,20.58111-10.29055,7.3504-10.29055,10.29056-27.93152,4.41024-27.93152,0S838.72618,763.292,838.72618,763.292Z" transform="translate(-156.94259 -90.78029)" fill="#2f2e41"/><path d="M829.17066,331.8236s-41.16223-16.17088-63.21343-10.29056-58.8032,32.34176-57.33312,38.22207,15.43584,74.239,15.43584,74.239,0,41.16223,7.3504,54.39295,8.82048,23.52128,8.82048,23.52128l-1.47008,14.70079s38.22208,2.94016,58.80319-5.88031,54.393-2.94016,54.393-2.94016-17.641-73.504-26.46144-85.26463S829.17066,331.8236,829.17066,331.8236Z" transform="translate(-156.94259 -90.78029)" fill="#575a89"/><path d="M721.11979,356.07992l-13.23072,4.41023s-11.76063,17.641-11.76063,29.4016-1.47008,85.26463,4.41024,95.55519,11.76063,30.87168,20.58111,32.34176l10.29056,13.23071,17.641-11.76063L743.171,506.02806Z" transform="translate(-156.94259 -90.78029)" fill="#575a89"/><path d="M809.32458,334.02872l14.62329-4.10714,5.95783,2.63706s22.0512,22.0512,29.4016,44.10239,8.82048,107.31583,8.82048,107.31583,1.47008,4.41024,0,5.88032-2.94016,2.94016-2.94016,5.88032-2.94016,8.82048-2.94016,8.82048l-1.47008,11.76064-14.7008-1.47008S818.14506,432.52407,818.14506,413.413,809.32458,334.02872,809.32458,334.02872Z" transform="translate(-156.94259 -90.78029)" fill="#575a89"/><path d="M805.22376,324.32181s.42562-7.199-3.98462-8.66909-10.29056-8.82048-22.05119-5.88032-42.63232,7.3504-44.1024,10.29056-5.88032,4.41024-4.41024,7.3504,4.41024,0,1.47008,2.94016-4.41024,1.47008-2.94016,2.94016,1.47008,8.82048,1.47008,8.82048,22.0512,14.70079,27.93152,13.23072,40.97527-32.33794,40.97527-32.33794Z" transform="translate(-156.94259 -90.78029)" fill="#575a89"/><polygon points="573.653 329.735 572.163 379.811 583.924 415.092 573.653 329.735" opacity="0.2"/><polygon points="675.112 307.857 688.414 356.157 685.34 393.22 675.112 307.857" opacity="0.2"/><circle cx="602.77519" cy="189.56088" r="31.20373" fill="#a0616a"/><path d="M733.164,278.18867q3.30276,8.43831,6.60554,16.87662c2.70685,6.91579,5.807,14.31487,12.152,18.17448,7.83389,4.76532,18.2954,2.44175,25.87374-2.72031,13.52694-9.214,20.40531-27.20389,16.47615-43.09218s-18.39968-28.5986-34.662-30.44573l-.31361,5.64861-6.93146-5.81c-1.84405,3.71319-7.67362,4.53762-10.475,1.48139,1.82081,3.77421-.28063,8.37738-3.31529,11.26861-3.72831,3.55174-14.39177,7.82034-13.94925,14.16973C724.92007,267.977,731.44533,273.79764,733.164,278.18867Z" transform="translate(-156.94259 -90.78029)" fill="#2f2e41"/></svg>