<?xml version="1.0" encoding="UTF-8" standalone="no"?>
<svg
   xmlns:dc="http://purl.org/dc/elements/1.1/"
   xmlns:cc="http://creativecommons.org/ns#"
   xmlns:rdf="http://www.w3.org/1999/02/22-rdf-syntax-ns#"
   xmlns:svg="http://www.w3.org/2000/svg"
   xmlns="http://www.w3.org/2000/svg"
   version="1.1"
   viewBox="0 0 1260.0132 743.5"
   height="743.5"
   width="1260.0132"
   data-name="Layer 1"
   id="b74f039e-7d6a-4faf-9af8-185aab588417">
  <metadata
     id="metadata87">
    <rdf:RDF>
      <cc:Work
         rdf:about="">
        <dc:format>image/svg+xml</dc:format>
        <dc:type
           rdf:resource="http://purl.org/dc/dcmitype/StillImage" />
        <dc:title></dc:title>
      </cc:Work>
    </rdf:RDF>
  </metadata>
  <defs
     id="defs85" />
  <path
     style="fill:#f2f2f2"
     id="path2"
     d="m 1088.9957,692.59388 a 381.14587,381.14587 0 0 1 -3.5932,48.97513 c -0.079,0.57 -0.1644,1.14 -0.2434,1.70993 l -153.44793,-0.85739 c -0.45054,-0.56608 -0.894,-1.139 -1.32365,-1.71869 -1.43261,-1.91858 -2.77531,-3.8917 -4.0079,-5.93286 -5.92441,-9.83353 -8.63666,-21.34664 -5.91871,-29.29 l 0.0487,-0.12343 a 13.93866,13.93866 0 0 1 2.72045,-4.727 c 6.19685,-6.9755 18.72625,-5.81272 30.09644,-0.18234 -10.1983,-11.16319 -18.3188,-25.24941 -18.93582,-37.823 -0.605,-12.26419 5.8079,-21.02536 12.76344,-28.47084 0.22823,-0.24613 0.45642,-0.48542 0.68461,-0.72467 0.11075,-0.12309 0.22819,-0.2393 0.33861,-0.36238 5.42681,-5.674 11.75353,-11.26734 20.91106,-10.59074 10.04343,0.74338 21.1786,9.15586 28.9861,18.95868 7.8076,9.79593 12.9959,20.92425 18.2548,31.785 5.2656,10.85387 10.9626,21.98507 19.4124,31.26226 -11.4446,-14.4759 -20.6719,-30.94626 -24.0805,-46.96489 -3.4086,-16.01863 -0.4088,-31.40348 9.791,-38.94766 a 23.85656,23.85656 0 0 1 10.4496,-4.21639 c 0.44,-0.0731 0.887,-0.1325 1.341,-0.185 9.4422,-1.07433 20.7158,2.19131 30.3077,9.99725 10.5634,8.5949 17.887,21.33649 21.5309,33.43212 3.6436,12.09568 4.0319,23.74014 3.9143,34.99691 z" />
  <path
     style="fill:#ffffff"
     id="path4"
     d="m 988.6012,742.73942 -2.9342,-0.0164 q -1.3976,-0.87372 -2.8083,-1.727 c -0.5821,-0.36749 -1.1711,-0.72129 -1.7604,-1.082 q -14.59922,-8.91639 -29.38101,-17.1053 -14.76835,-8.1957 -29.68522,-15.6362 a 1.22975,1.22975 0 0 1 -0.70693,-1.406 0.3543,0.3543 0 0 1 0.0489,-0.10279 c 0.1387,-0.26039 0.44871,-0.36865 0.90117,-0.14619 1.21977,0.61162 2.44659,1.22327 3.66628,1.84864 q 14.95761,7.56786 29.78683,15.89109 14.819,8.31967 29.46908,17.3738 c 0.2054,0.12485 0.411,0.25658 0.6164,0.38143 0.9313,0.57571 1.856,1.15131 2.7874,1.72692 z" />
  <path
     style="fill:#ffffff"
     id="path6"
     d="m 1026.4342,742.95081 -1.8144,-0.0101 c -0.4093,-0.57268 -0.8114,-1.14537 -1.2207,-1.7181 Q 1008.9769,720.99822 994.5606,700.77388 970.95239,667.6635 947.35824,634.5532 a 1.16867,1.16867 0 0 1 -0.20415,-0.39977 c -0.13452,-0.48872 0.22448,-0.77536 0.68461,-0.72467 a 1.37834,1.37834 0 0 1 0.95869,0.61015 q 13.236,18.56831 26.46543,37.1228 23.48528,32.94479 46.96398,65.88259 c 0.9956,1.39386 1.9912,2.79455 2.9868,4.1884 0.4092,0.57273 0.8184,1.14546 1.2206,1.71811 z" />
  <path
     style="fill:#ffffff"
     id="path8"
     d="m 1066.8562,732.4141 c -0.093,3.05782 -0.295,6.06692 -0.5593,9.04816 q -0.077,0.85523 -0.1538,1.71042 l -1.9037,-0.0106 c 0.058,-0.57008 0.1164,-1.1402 0.1676,-1.71035 0.4023,-4.30693 0.6877,-8.66258 0.7264,-13.13647 a 183.261,183.261 0 0 0 -3.6078,-36.94009 230,230 0 0 0 -11.1737,-38.37754 263.55654,263.55654 0 0 0 -18.282,-37.97055 1.01423,1.01423 0 0 1 -0.168,-0.67445 c 0.078,-0.54253 0.8009,-0.70343 1.341,-0.185 a 1.57576,1.57576 0 0 1 0.2729,0.34516 q 1.3172,2.265 2.5864,4.54355 a 263.37383,263.37383 0 0 1 17.498,38.1036 228.91263,228.91263 0 0 1 10.4171,38.43518 180.79932,180.79932 0 0 1 2.8389,36.81901 z" />
  <path
     style="fill:#f2f2f2"
     id="path10"
     d="m 788.94816,716.34948 a 199.18081,199.18081 0 0 1 -1.87772,25.59327 c -0.0411,0.29787 -0.0859,0.59572 -0.12723,0.89356 l -80.18832,-0.44805 c -0.23545,-0.29582 -0.46718,-0.59519 -0.69171,-0.89814 -0.74865,-1.00261 -1.45032,-2.03371 -2.09444,-3.10038 -3.096,-5.13878 -4.51332,-11.15526 -3.093,-15.30628 l 0.0254,-0.0645 a 7.28369,7.28369 0 0 1 1.42164,-2.4702 c 3.23833,-3.64524 9.78591,-3.03759 15.7277,-0.0953 -5.32939,-5.83363 -9.573,-13.19476 -9.89542,-19.76542 -0.31615,-6.409 3.03508,-10.98737 6.66988,-14.8782 0.11927,-0.12862 0.23851,-0.25367 0.35776,-0.3787 0.0579,-0.0643 0.11924,-0.125 0.177,-0.18937 2.83593,-2.96509 6.14212,-5.888 10.92764,-5.53448 5.24846,0.38848 11.06744,4.78465 15.14747,9.90737 4.08005,5.11913 6.79133,10.93453 9.53952,16.61009 2.75171,5.672 5.72884,11.48889 10.14448,16.33693 -5.98068,-7.56477 -10.80268,-16.1718 -12.58392,-24.54276 -1.78124,-8.37096 -0.21362,-16.41074 5.11656,-20.35315 a 12.46691,12.46691 0 0 1 5.46076,-2.20339 c 0.22994,-0.0382 0.46353,-0.0692 0.70078,-0.0967 4.93425,-0.56142 10.82561,1.14512 15.8381,5.22433 a 36.46069,36.46069 0 0 1 11.25147,17.47085 c 1.90409,6.3209 2.107,12.40608 2.04556,18.28856 z" />
  <path
     style="fill:#ffffff"
     id="path12"
     d="m 736.48428,742.55438 -1.53335,-0.009 q -0.73031,-0.4566 -1.46751,-0.90248 c -0.30424,-0.192 -0.612,-0.37693 -0.92,-0.56541 q -7.62921,-4.65951 -15.35385,-8.93884 -7.71759,-4.28288 -15.51281,-8.17111 a 0.64266,0.64266 0 0 1 -0.36943,-0.73475 0.18545,0.18545 0 0 1 0.0256,-0.0537 c 0.0725,-0.13608 0.23449,-0.19265 0.47093,-0.0764 0.63742,0.31962 1.27853,0.63926 1.91591,0.96606 q 7.8165,3.95478 15.56591,8.30432 7.74406,4.34767 15.39989,9.07914 c 0.10731,0.0652 0.21478,0.13408 0.32209,0.19933 0.48674,0.30082 0.96998,0.60162 1.45666,0.90242 z" />
  <path
     style="fill:#ffffff"
     id="path14"
     d="m 756.25495,742.66484 -0.94818,-0.005 c -0.21385,-0.29928 -0.424,-0.59855 -0.63787,-0.89785 q -7.53675,-10.56876 -15.07034,-21.13755 -12.33713,-17.30271 -24.66688,-34.60539 a 0.61082,0.61082 0 0 1 -0.10668,-0.20891 c -0.0703,-0.2554 0.1173,-0.40519 0.35776,-0.3787 a 0.7203,0.7203 0 0 1 0.501,0.31885 q 6.91684,9.70337 13.83022,19.39952 12.27289,17.21617 24.5423,34.42872 c 0.52028,0.7284 1.04053,1.46037 1.5608,2.18876 0.21385,0.2993 0.4277,0.59859 0.63787,0.89784 z" />
  <path
     style="fill:#ffffff"
     id="path16"
     d="m 777.3786,737.1586 c -0.0484,1.59795 -0.15415,3.17044 -0.29227,4.72836 q -0.0401,0.44692 -0.0804,0.89383 l -0.99482,-0.006 c 0.0304,-0.29791 0.0608,-0.59584 0.0876,-0.89379 0.21021,-2.2507 0.35936,-4.52686 0.37961,-6.86481 a 95.76776,95.76776 0 0 0 -1.88534,-19.304 120.19314,120.19314 0 0 0 -5.83917,-20.05521 137.72821,137.72821 0 0 0 -9.55372,-19.84254 0.53,0.53 0 0 1 -0.0878,-0.35245 c 0.041,-0.28351 0.41855,-0.36759 0.70078,-0.0967 a 0.82368,0.82368 0 0 1 0.14262,0.18037 q 0.68835,1.18365 1.3516,2.37435 a 137.63277,137.63277 0 0 1 9.144,19.91206 119.623,119.623 0 0 1 5.44372,20.08534 94.48078,94.48078 0 0 1 1.48362,19.2407 z" />
  <path
     style="fill:#3f3d56"
     id="path18"
     d="M 325.95325,404.32373 H 175.67237 A 15.69025,15.69025 0 0 1 160,388.65137 V 208.13672 a 15.69025,15.69025 0 0 1 15.67237,-15.67236 h 150.28088 a 15.69025,15.69025 0 0 1 15.67235,15.67236 v 180.51465 a 15.69025,15.69025 0 0 1 -15.67235,15.67236 z M 175.67237,194.46436 A 13.68781,13.68781 0 0 0 162,208.13672 v 180.51465 a 13.68781,13.68781 0 0 0 13.67237,13.67236 H 325.95325 A 13.6878,13.6878 0 0 0 339.6256,388.65137 V 208.13672 a 13.6878,13.6878 0 0 0 -13.67236,-13.67236 z" />
  <path
     style="fill:#cccccc"
     id="path20"
     d="m 285.94226,207.30273 h -70.25891 a 12.51409,12.51409 0 0 1 -12.5,-12.5 v -2.67724 a 12.51409,12.51409 0 0 1 12.5,-12.5 h 70.25891 a 12.51408,12.51408 0 0 1 12.5,12.5 v 2.67724 a 12.51408,12.51408 0 0 1 -12.5,12.5 z" />
  <path
     style="fill:#7e1324"
     id="path22"
     d="M 319.7286,305.50793 H 181.89711 a 7.11389,7.11389 0 1 1 0,-14.22777 H 319.7286 a 7.11389,7.11389 0 0 1 0,14.22777 z" />
  <path
     style="fill:#7e1324"
     id="path24"
     d="M 319.7286,335.74194 H 181.89711 a 7.11389,7.11389 0 1 1 0,-14.22777 H 319.7286 a 7.11389,7.11389 0 0 1 0,14.22777 z" />
  <path
     style="fill:#7e1324"
     id="path26"
     d="m 282.82534,275.27392 h -64.025 a 7.11389,7.11389 0 1 1 0,-14.22777 h 64.025 a 7.11389,7.11389 0 1 1 0,14.22777 z" />
  <path
     style="fill:#3f3d56"
     id="path28"
     d="M 645.18872,224.69824 H 494.90796 A 15.69017,15.69017 0 0 1 479.2356,209.02588 V 28.51074 a 15.69017,15.69017 0 0 1 15.67236,-15.67236 h 150.28076 a 15.69017,15.69017 0 0 1 15.67237,15.67236 v 180.51514 a 15.69017,15.69017 0 0 1 -15.67237,15.67236 z M 494.90796,14.83838 A 13.68772,13.68772 0 0 0 481.2356,28.51074 v 180.51514 a 13.68772,13.68772 0 0 0 13.67236,13.67236 h 150.28076 a 13.68772,13.68772 0 0 0 13.67237,-13.67236 V 28.51074 A 13.68772,13.68772 0 0 0 645.18872,14.83838 Z" />
  <path
     style="fill:#cccccc"
     id="path30"
     d="m 605.17774,27.67725 h -70.25879 a 12.51409,12.51409 0 0 1 -12.5,-12.5 V 12.5 a 12.51408,12.51408 0 0 1 12.5,-12.5 h 70.25879 a 12.51408,12.51408 0 0 1 12.5,12.5 v 2.67725 a 12.51409,12.51409 0 0 1 -12.5,12.5 z" />
  <path
     style="fill:#7e1324"
     id="path32"
     d="M 638.96415,125.8822 H 501.1326 a 7.11389,7.11389 0 1 1 0,-14.22777 h 137.83155 a 7.11389,7.11389 0 1 1 0,14.22777 z" />
  <path
     style="fill:#7e1324"
     id="path34"
     d="M 638.96415,156.1162 H 501.1326 a 7.11388,7.11388 0 1 1 0,-14.22776 h 137.83155 a 7.11388,7.11388 0 1 1 0,14.22776 z" />
  <path
     style="fill:#7e1324"
     id="path36"
     d="m 602.06088,95.64819 h -64.025 a 7.11389,7.11389 0 1 1 0,-14.22777 h 64.025 a 7.113885,7.113885 0 0 1 0,14.22777 z" />
  <path
     style="fill:#3f3d56"
     id="path38"
     d="m 951.78945,528.84434 -131.95713,71.914 a 15.69017,15.69017 0 0 1 -21.26115,-6.26173 L 712.18931,435.992 a 15.69017,15.69017 0 0 1 6.26173,-21.26116 l 131.95712,-71.914 a 15.69017,15.69017 0 0 1 21.26115,6.26173 l 86.38187,158.50462 a 15.69017,15.69017 0 0 1 -6.26173,21.26115 z M 719.4081,416.487 a 13.68772,13.68772 0 0 0 -5.46265,18.548 l 86.38186,158.50462 a 13.68773,13.68773 0 0 0 18.548,5.46265 l 131.95712,-71.914 a 13.68772,13.68772 0 0 0 5.46265,-18.548 L 869.91317,350.03563 a 13.68773,13.68773 0 0 0 -18.548,-5.46265 z" />
  <path
     style="fill:#cccccc"
     id="path40"
     d="m 822.37631,374.99249 -61.69218,33.621 a 12.51409,12.51409 0 0 1 -16.95753,-4.99424 l -1.28114,-2.35081 a 12.51408,12.51408 0 0 1 4.99424,-16.95752 l 61.69218,-33.621 a 12.51409,12.51409 0 0 1 16.95752,4.99424 l 1.2812,2.35084 a 12.51409,12.51409 0 0 1 -4.99429,16.95749 z" />
  <path
     style="fill:#cccccc"
     id="path42"
     d="M 899.03741,445.05573 778.0116,511.01239 a 7.1138908,7.1138908 0 1 1 -6.80843,-12.493 l 121.02581,-65.95665 a 7.1138908,7.1138908 0 0 1 6.80843,12.493 z" />
  <path
     style="fill:#cccccc"
     id="path44"
     d="M 913.50532,471.60333 792.47951,537.56 a 7.1138908,7.1138908 0 1 1 -6.80843,-12.493 l 121.02581,-65.95666 a 7.1138908,7.1138908 0 0 1 6.80843,12.493 z" />
  <path
     style="fill:#cccccc"
     id="path46"
     d="m 852.16581,436.1675 -56.21844,30.63793 a 7.1138908,7.1138908 0 1 1 -6.80843,-12.493 l 56.21844,-30.63794 a 7.1138908,7.1138908 0 1 1 6.80843,12.493 z" />
  <rect
     style="fill:#3f3d56"
     id="rect48"
     transform="rotate(-30.13963)"
     height="1.9998699"
     width="81.27668"
     y="361.90421"
     x="216.4706" />
  <polygon
     transform="translate(160)"
     style="fill:#3f3d56"
     id="polygon50"
     points="282.194,174.428 292.122,157.132 272.179,157.179 " />
  <path
     style="fill:#3f3d56"
     id="path52"
     d="m 647.23267,431.94189 a 0.995,0.995 0 0 1 -0.4563,-0.11035 L 376.6276,293.05908 a 1.00012,1.00012 0 0 1 0.91382,-1.77929 l 270.149,138.77246 a 1.00011,1.00011 0 0 1 -0.45776,1.88964 z" />
  <polygon
     transform="translate(160)"
     style="fill:#3f3d56"
     id="polygon54"
     points="480.081,438.479 500,437.5 489.195,420.738 " />
  <path
     style="fill:#a0616a"
     id="path56"
     d="m 925.97379,546.68206 a 10.74269,10.74269 0 0 1 -3.84155,-16.01842 l -8.033,-78.54 h 17.36007 l 6.384,76.69031 a 10.80091,10.80091 0 0 1 -11.86954,17.86816 z" />
  <circle
     style="fill:#a0616a"
     id="circle58"
     r="24.561029"
     cy="384.21808"
     cx="910.03412" />
  <path
     style="fill:#7e1324"
     id="path60"
     d="m 904.44518,497.75835 -36.65649,-8.00488 a 4.511,4.511 0 0 1 -3.53394,-4.165 c -0.42334,-8.17969 -0.72754,-29.33984 5.57324,-49.09375 A 29.74834,29.74834 0 0 1 908.0548,417.544 v 0 a 29.76178,29.76178 0 0 1 16.90088,41.09033 c -8.12891,16.69238 -13.24854,28.78027 -15.21631,35.92969 a 4.49237,4.49237 0 0 1 -5.29419,3.19433 z" />
  <polygon
     transform="translate(160)"
     style="fill:#a0616a"
     id="polygon62"
     points="709.913,731.092 697.653,731.091 691.821,683.803 709.915,683.804 " />
  <path
     style="fill:#2f2e41"
     id="path64"
     d="m 848.89581,727.58795 h 23.64385 v 14.88687 h -38.53072 v 0 a 14.88687,14.88687 0 0 1 14.88687,-14.88687 z" />
  <polygon
     transform="translate(160)"
     style="fill:#a0616a"
     id="polygon66"
     points="832.504,715.203 821.761,721.109 793.866,682.482 809.722,673.764 " />
  <path
     style="fill:#2f2e41"
     id="path68"
     d="m 972.39949,722.2583 20.71911,-11.39087 7.172,13.04533 -33.76443,18.56289 v 0 a 14.88686,14.88686 0 0 1 5.87332,-20.21735 z" />
  <path
     style="fill:#2f2e41"
     id="path70"
     d="m 870.1361,704.83159 -18.8735,-1.45312 a 4.48766,4.48766 0 0 1 -4.134,-4.04981 c -2.6897,-28.05566 -14.49072,-170.22754 17.42676,-214 l 0.0893,-0.12207 0.14258,-0.0527 c 0.28565,-0.10449 28.75049,-10.25488 45.08179,8.34668 a 4.49768,4.49768 0 0 1 0.866,4.37695 l -0.62305,1.86914 a 3.48476,3.48476 0 0 0 0.49585,3.17285 c 4.53223,6.127 19.78638,29.72461 25.78174,76.12793 a 3.466,3.466 0 0 0 0.22607,0.86133 L 980.8797,688.646 a 4.49961,4.49961 0 0 1 -2.56587,5.90136 l -13.928,5.30664 a 4.52455,4.52455 0 0 1 -5.54273,-2.03418 L 894.94445,581.88921 a 2.5,2.5 0 0 0 -4.66846,0.88574 l -15.33227,118.14844 a 4.49948,4.49948 0 0 1 -4.45826,3.9209 c -0.11572,0 -0.23217,-0.004 -0.34936,-0.0127 z" />
  <path
     style="fill:#a0616a"
     id="path72"
     d="m 814.55011,412.74829 a 10.527,10.527 0 0 1 0.2393,1.64013 l 42.95745,24.782 10.44141,-6.01094 11.13116,14.57228 -17.45034,12.43754 a 8,8 0 0 1 -9.59819,-0.23383 l -44.29652,-34.94584 a 10.4971,10.4971 0 1 1 6.57573,-12.24132 z" />
  <path
     style="fill:#7e1324"
     id="path74"
     d="m 858.33709,436.69326 a 4.49516,4.49516 0 0 1 2.21126,-3.025 l 19.713,-11.02279 a 12.49742,12.49742 0 0 1 15.32664,19.74414 l -15.71739,16.32118 a 4.5,4.5 0 0 1 -6.80392,-0.37267 l -13.88374,-17.994 a 4.495,4.495 0 0 1 -0.84585,-3.65086 z" />
  <path
     style="fill:#7e1324"
     id="path76"
     d="m 909.3641,470.67609 a 4.49517,4.49517 0 0 1 -1.667,-3.35581 l -0.7074,-22.57438 a 12.49742,12.49742 0 0 1 24.58385,-4.51347 l 7.25055,21.46732 a 4.5,4.5 0 0 1 -3.46382,5.86807 l -22.36585,4.03854 a 4.49491,4.49491 0 0 1 -3.63033,-0.93027 z" />
  <path
     style="fill:#2f2e41"
     id="path78"
     d="m 906.14673,378.56874 c -6.31271,4.32051 -14.60145,8.76174 -21.04891,4.16075 -4.23352,-3.02109 -5.56737,-8.61546 -3.8506,-13.52487 3.08726,-8.82857 11.56943,-12.71531 19.68052,-15.69459 10.54441,-3.873 22.02573,-6.95424 32.91112,-4.18054 10.88539,2.7737 20.5056,13.31291 18.54058,24.37292 -1.58022,8.89423 -9.97,16.29492 -8.779,25.24958 1.19867,9.01215 11.33379,13.7559 20.28149,15.36659 8.9477,1.61069 18.96037,2.12821 25.39077,8.5552 8.2031,8.19879 6.1546,22.85324 -1.5642,31.50954 -7.71876,8.6563 -19.3668,12.58012 -30.65377,15.24758 -14.95454,3.53422 -31.12905,5.3916 -45.33209,-0.47379 -14.20304,-5.86539 -25.25565,-21.65433 -21.14126,-36.45976 1.73791,-6.25379 5.83191,-11.53909 9.78854,-16.68451 3.95663,-5.14542 7.9631,-10.526 9.47237,-16.83888 1.25773,-5.26073 0.32683,-11.36869 -3.16181,-15.31484 a 4.437,4.437 0 0 1 -0.5944,-5.18643 z" />
  <path
     style="fill:#3f3d56"
     id="path80"
     d="M 1086.311,743.5 H 705.31103 a 1,1 0 0 1 0,-2 H 1086.311 a 1,1 0 0 1 0,2 z" />
</svg>
