<?xml version="1.0" encoding="UTF-8" standalone="no"?>
<svg
   xmlns:dc="http://purl.org/dc/elements/1.1/"
   xmlns:cc="http://creativecommons.org/ns#"
   xmlns:rdf="http://www.w3.org/1999/02/22-rdf-syntax-ns#"
   xmlns:svg="http://www.w3.org/2000/svg"
   xmlns="http://www.w3.org/2000/svg"
   version="1.1"
   viewBox="0 0 1260.5 834.5"
   height="834.5"
   width="1260.5"
   data-name="Layer 1"
   id="bac3cfc7-b61b-48ce-8441-8100e40ddaa6">
  <metadata
     id="metadata51">
    <rdf:RDF>
      <cc:Work
         rdf:about="">
        <dc:format>image/svg+xml</dc:format>
        <dc:type
           rdf:resource="http://purl.org/dc/dcmitype/StillImage" />
        <dc:title>void</dc:title>
      </cc:Work>
    </rdf:RDF>
  </metadata>
  <defs
     id="defs49" />
  <title
     id="title2">void</title>
  <ellipse
     style="fill:#3f3d56"
     id="ellipse4"
     ry="54.5"
     rx="308.5"
     cy="780"
     cx="548.5" />
  <circle
     style="fill:#3f3d56"
     id="circle6"
     r="301.5"
     cy="301.5"
     cx="736" />
  <circle
     style="opacity:0.05"
     id="circle8"
     r="248.89787"
     cy="301.5"
     cx="736" />
  <circle
     style="opacity:0.05"
     id="circle10"
     r="203.99362"
     cy="301.5"
     cx="736" />
  <circle
     style="opacity:0.05"
     id="circle12"
     r="146.25957"
     cy="301.5"
     cx="736" />
  <path
     style="fill:#d0cde1"
     id="path14"
     d="m 437.17029,328.48224 c 0,0 -23.70394,66.72221 -13.16886,90.42615 10.53508,23.70394 27.21564,46.52995 27.21564,46.52995 0,0 -6.14547,-132.56648 -14.04678,-136.9561 z" />
  <path
     style="opacity:0.1"
     id="path16"
     d="m 437.17029,328.48224 c 0,0 -23.70394,66.72221 -13.16886,90.42615 10.53508,23.70394 27.21564,46.52995 27.21564,46.52995 0,0 -6.14547,-132.56648 -14.04678,-136.9561 z" />
  <path
     style="fill:#2f2e41"
     id="path18"
     d="m 453.85084,482.99682 c 0,0 -1.75585,16.68055 -2.63377,17.55847 -0.87792,0.87792 0.87792,2.63377 0,5.26754 -0.87792,2.63377 -1.75585,6.14547 0,7.02339 1.75585,0.87792 -9.65716,78.13521 -9.65716,78.13521 0,0 -28.09356,36.8728 -16.68055,94.81576 l 3.51169,58.82089 c 0,0 27.21564,1.75585 27.21564,-7.90132 0,0 -1.75585,-11.413 -1.75585,-16.68055 0,-5.26755 4.38962,-5.26754 1.75585,-7.90131 -2.63377,-2.63377 -2.63377,-4.38962 -2.63377,-4.38962 0,0 4.38961,-3.51169 3.51169,-4.38962 -0.87792,-0.87793 7.90131,-63.2105 7.90131,-63.2105 0,0 9.65716,-9.65716 9.65716,-14.92471 v -5.26754 c 0,0 4.38962,-11.413 4.38962,-12.29093 0,-0.87793 23.70394,-54.43127 23.70394,-54.43127 l 9.65716,38.62864 10.53509,55.3092 c 0,0 5.26754,50.04165 15.80262,69.356 0,0 18.4364,63.21051 18.4364,61.45466 0,-1.75585 30.72733,-6.14547 29.84941,-14.04678 -0.87792,-7.90131 -18.4364,-118.5197 -18.4364,-118.5197 L 572.37054,481.241 Z" />
  <path
     style="fill:#2f2e41"
     id="path20"
     d="m 430.1469,740.22846 c 0,0 -23.70394,46.53 -7.90131,48.2858 15.80263,1.7558 21.94809,1.75585 28.97148,-5.26754 3.83968,-3.83968 11.61528,-8.99134 17.87566,-12.87285 a 23.117,23.117 0 0 0 10.96893,-21.98175 c -0.463,-4.29531 -2.06792,-7.83444 -6.01858,-8.16366 -10.53508,-0.87792 -22.826,-10.53508 -22.826,-10.53508 z" />
  <path
     style="fill:#2f2e41"
     id="path22"
     d="m 560.95753,774.46748 c 0,0 -23.70394,46.53 -7.90131,48.28581 15.80263,1.75581 21.94809,1.75584 28.97148,-5.26754 3.83968,-3.83969 11.61528,-8.99134 17.87566,-12.87285 a 23.117,23.117 0 0 0 10.96893,-21.98175 c -0.463,-4.29531 -2.06792,-7.83444 -6.01857,-8.16367 -10.53509,-0.87792 -22.826,-10.53508 -22.826,-10.53508 z" />
  <circle
     style="fill:#ffb8b8"
     id="circle24"
     r="36.904621"
     cy="215.43253"
     cx="535.90491" />
  <path
     style="fill:#ffb8b8"
     id="path26"
     d="m 512.18048,227.55832 c 0,0 -26.36048,48.50322 -28.46928,48.50322 -2.1088,0 47.4488,15.81627 47.4488,15.81627 0,0 13.70743,-46.39439 15.81626,-50.61206 z" />
  <path
     style="fill:#d0cde1"
     id="path28"
     d="m 552.61726,280.6354 c 0,0 -52.67543,-28.97148 -57.943,-28.09356 -5.26757,0.87792 -61.45466,50.04166 -60.57673,70.2339 0.87793,20.19224 7.90131,53.55335 7.90131,53.55335 0,0 2.63377,93.05991 7.90131,93.93783 5.26754,0.87792 -0.87792,16.68055 0.87793,16.68055 1.75585,0 122.90931,0 123.78724,-2.63377 0.87793,-2.63377 -21.94806,-203.6783 -21.94806,-203.6783 z" />
  <path
     style="fill:#ffb8b8"
     id="path30"
     d="m 582.0277,489.14228 c 0,0 16.68055,50.91958 2.63377,49.16373 -14.04678,-1.75585 -20.19224,-43.89619 -20.19224,-43.89619 z" />
  <path
     style="fill:#d0cde1"
     id="path32"
     d="m 537.25359,277.56267 c 0,0 -32.48318,7.02339 -27.21563,50.91957 5.26755,43.89618 14.9247,87.79237 14.9247,87.79237 l 32.48318,71.11182 3.51169,13.16886 23.70394,-6.14547 L 567.103,392.57067 c 0,0 -6.14547,-108.86253 -14.04678,-112.37423 a 33.99966,33.99966 0 0 0 -15.80263,-2.63377 z" />
  <polygon
     transform="translate(240)"
     style="opacity:0.1"
     id="polygon34"
     points="317.885,486.947 283.86,411.09 277.5,414.958 " />
  <path
     style="fill:#2f2e41"
     id="path36"
     d="m 572.646,204.56585 0.122,-2.82012 5.6101,1.39632 a 6.26971,6.26971 0 0 0 -2.5138,-4.61513 l 5.97581,-0.33413 a 64.47667,64.47667 0 0 0 -43.1245,-26.65136 c -12.92583,-1.87346 -27.31837,0.83756 -36.182,10.43045 -4.29926,4.653 -7.00067,10.57018 -8.92232,16.60685 -3.53926,11.11821 -4.26038,24.3719 3.11964,33.40938 7.5006,9.18513 20.602,10.98439 32.40592,12.12114 4.15328,0.4 8.50581,0.77216 12.35457,-0.83928 a 29.721,29.721 0 0 0 -1.6539,-13.03688 8.68665,8.68665 0 0 1 -0.87879,-4.15246 c 0.5247,-3.51164 5.20884,-4.39635 8.72762,-3.9219 3.51878,0.47445 7.74984,1.20031 10.062,-1.49432 1.59261,-1.85609 1.49867,-4.559 1.70967,-6.99575 0.57446,-6.63366 13.12785,-7.71213 13.18798,-9.10281 z" />
  <circle
     style="fill:#7e1324"
     id="circle38"
     r="43"
     cy="744.5"
     cx="799" />
  <circle
     style="fill:#7e1324"
     id="circle40"
     r="43"
     cy="729.5"
     cx="294" />
  <circle
     style="fill:#7e1324"
     id="circle42"
     r="31"
     cy="672.5"
     cx="294" />
  <circle
     style="fill:#7e1324"
     id="circle44"
     r="22"
     cy="624.5"
     cx="294" />
</svg>
