<svg xmlns="http://www.w3.org/2000/svg" viewBox="-19.314 0 225.953 245.266" height="926.991" width="926.991"><path d="M35.11 199.978q-18.827-.508-26.968-9.159Q0 181.914 0 162.832V3.816L21.88 0v163.341q0 8.905 3.563 12.976 3.562 3.816 12.466 5.343zm17.858-61.571q4.58-15.774 11.704-33.33 7.124-17.555 14.756-33.838 7.633-16.283 14.503-29.513 7.124-13.23 11.449-20.609h22.39v115.255h17.3v18.064h-17.3v42.998h-20.1v-42.998H52.968zm54.702-2.035V50.376q-3.817 7.887-8.905 18.064-4.834 10.177-9.923 21.627-4.834 11.449-9.414 23.407-4.58 11.703-7.887 22.898zm85.662 68.186q0 21.88-9.669 31.294-9.668 9.414-25.697 9.414-8.396 0-15.01-2.544l3.052-18.573q2.29.509 4.58.763 2.29.509 5.089.509 3.562 0 6.36-1.018 3.053-.763 5.089-3.307 2.035-2.544 3.053-6.87 1.272-4.325 1.272-10.94V63.861h21.88zM182.392 40.2q-5.852 0-10.178-3.816-4.07-4.071-4.07-10.686t4.07-10.431q4.326-4.071 10.177-4.071 5.852 0 9.923 4.07 4.325 3.817 4.325 10.432t-4.325 10.686q-4.07 3.816-9.923 3.816z" aria-label="l4j" fill="maroon"/></svg>